<svg xmlns="http://www.w3.org/2000/svg" xmlns:xlink="http://www.w3.org/1999/xlink"><defs><clipPath id="clip0"><path fill="#fff" d="M0 0h1920v4066H0z"/></clipPath></defs><symbol id="icon-arrow"><path d="M1 8.5l4-4-4-4" stroke="#fff" stroke-linejoin="round"/></symbol><symbol id="icon-bg-feedback-desktop"><path opacity=".2" d="M440.264 414.5l-278.25 160.648V253.852L440.264 414.5zM87.908 160.136L262.25 59.48v201.313L87.908 160.136z" stroke="#fff"/></symbol><symbol id="icon-bg-page-desktop"><g clip-path="url(#clip0)"><path d="M297.208 1482.74v549.35l-475.751-274.68 475.751-274.67z" stroke="#EBEBEB"/><circle cx="296.896" cy="2031.88" r="5" transform="rotate(-30 296.896 2031.88)" fill="#F2F2F2"/><circle cx="297.053" cy="1482.15" r="5" transform="rotate(-30 297.053 1482.15)" fill="#F2F2F2"/><path d="M425.594 924.381v256.399l-222.045-128.2 222.045-128.199zM1668.56 1596.78v-256.4l222.05 128.2-222.05 128.2zm-355.94-137.16L836.874 1734.3v-549.35l475.746 274.67z" stroke="#EBEBEB"/><circle cx="836.739" cy="1184.2" r="5" transform="rotate(30 836.739 1184.2)" fill="#F2F2F2"/><circle cx="836.896" cy="1733.93" r="5" transform="rotate(30 836.896 1733.93)" fill="#F2F2F2"/><circle cx="1313.05" cy="1459.2" r="5" transform="rotate(30 1313.05 1459.2)" fill="#F2F2F2"/></g></symbol><symbol id="icon-check"><path d="M.5 2l3 3L8 .5" stroke="#fff"/></symbol><symbol id="icon-close"><path fill-rule="evenodd" clip-rule="evenodd" d="M.147.854A.5.5 0 11.854.146l7.424 7.425L15.703.146a.5.5 0 11.707.708L8.985 8.278l7.425 7.425a.5.5 0 01-.707.707L8.278 8.985.854 16.41a.5.5 0 11-.708-.707l7.425-7.425L.147.854z" fill="#fff"/></symbol><symbol id="icon-confidentiality">
<path d="M17.5 13.7582C17.1227 13.7582 16.8164 14.0752 16.8164 14.4663C16.8164 14.8571 17.1227 15.1743 17.5 15.1743C17.8773 15.1743 18.1836 14.8571 18.1836 14.4663C18.1836 14.0752 17.8773 13.7582 17.5 13.7582Z"/>
<path d="M32.9492 18.0066H30.2893C28.8872 13.8595 26.8527 6.58774 23.1672 4.52967C21.3239 3.5016 19.5815 4.21962 18.9262 5.67833C18.6474 6.29844 18.0907 6.62453 17.5 6.62453C16.9013 6.62453 16.3491 6.29124 16.0738 5.67888C15.4417 4.26996 13.741 3.48611 11.9624 4.38031C8.21781 6.26386 6.12377 13.8282 4.71066 18.0066H2.05078C0.917778 18.0066 0 18.9569 0 20.1308C0 21.3018 0.919914 22.2549 2.05078 22.2549H32.9492C34.0822 22.2549 35 21.3043 35 20.1308C35 18.9594 34.0801 18.0066 32.9492 18.0066V18.0066ZM7.11205 15.1743H14.7656C15.1432 15.1743 15.4492 14.8571 15.4492 14.4663C15.4492 14.0752 15.1432 13.7582 14.7656 13.7582H7.59003C9.65069 7.86225 11.5757 6.14908 12.5594 5.65427C13.6326 5.11493 14.516 5.56631 14.8343 6.27603C15.3357 7.39178 16.3731 8.04065 17.5 8.04065C18.6295 8.04065 19.6656 7.38929 20.1657 6.27603C20.4934 5.54612 21.3813 5.14203 22.5185 5.77624C23.5068 6.32831 25.4259 8.09845 27.4097 13.7582H20.2344C19.8568 13.7582 19.5508 14.0752 19.5508 14.4663C19.5508 14.8574 19.8568 15.1743 20.2344 15.1743H27.8882C28.2338 16.2066 28.5926 17.2717 28.841 18.0066H6.15929C6.40682 17.2736 6.76491 16.211 7.11205 15.1743V15.1743ZM32.9492 20.8388H2.05078C1.67374 20.8388 1.36719 20.521 1.36719 20.1308C1.36719 19.7397 1.6732 19.4227 2.05078 19.4227H32.9492C33.3263 19.4227 33.6328 19.7402 33.6328 20.1308C33.6328 20.5216 33.3265 20.8388 32.9492 20.8388Z"/>
<path d="M16.1328 25.0873H5.19531C4.81773 25.0873 4.51172 25.4042 4.51172 25.7953V28.6275C4.51172 32.1413 7.27173 35.0001 10.6641 35.0001C13.2345 35.0001 15.5096 33.3624 16.4145 30.8953C17.1019 30.5706 17.8981 30.5706 18.5855 30.8953C19.4904 33.3624 21.7655 34.9998 24.3359 34.9998C27.7283 34.9998 30.4883 32.1413 30.4883 28.6273V25.795C30.4883 25.4039 30.1823 25.087 29.8047 25.087H18.8672C18.4896 25.087 18.1836 25.4039 18.1836 25.795V26.5031H16.8164V25.795C16.8164 25.4042 16.5104 25.0873 16.1328 25.0873V25.0873ZM10.6641 33.584C8.02555 33.584 5.87891 31.3605 5.87891 28.6275V26.5034H15.4492V28.6275C15.4492 31.3677 13.3141 33.584 10.6641 33.584ZM19.5508 26.5034H29.1211V28.6275C29.1211 31.3605 26.9744 33.584 24.3359 33.584C21.6793 33.584 19.5508 31.361 19.5508 28.6275V26.5034ZM18.1836 27.9195V28.6275C18.1836 28.8538 18.1961 29.0792 18.2188 29.303C17.7438 29.2131 17.2562 29.2131 16.7812 29.303C16.8039 29.0792 16.8164 28.8538 16.8164 28.6275V27.9195H18.1836Z"/>
<path d="M10.6641 30.7516C9.5332 30.7516 8.61328 29.7985 8.61328 28.6274C8.61328 28.2363 8.30727 27.9194 7.92969 27.9194C7.55211 27.9194 7.24609 28.2363 7.24609 28.6274C7.24609 30.5793 8.77937 32.1677 10.6641 32.1677C11.0416 32.1677 11.3477 31.8505 11.3477 31.4597C11.3477 31.0686 11.0416 30.7516 10.6641 30.7516Z"/>
<path d="M24.3359 32.1677C26.2206 32.1677 27.7539 30.5793 27.7539 28.6274C27.7539 28.2363 27.4479 27.9194 27.0703 27.9194C26.6927 27.9194 26.3867 28.2363 26.3867 28.6274C26.3867 29.7985 25.4668 30.7516 24.3359 30.7516C23.9584 30.7516 23.6523 31.0686 23.6523 31.4597C23.6523 31.8505 23.9584 32.1677 24.3359 32.1677Z"/>
</symbol><symbol id="icon-cost"><path d="M11.07 8.585a.689.689 0 00-.483-.2.689.689 0 00-.483.2.69.69 0 00-.2.483.685.685 0 001.167.483.69.69 0 00.2-.483.689.689 0 00-.2-.483z"/><path d="M34.8 2.859l-.845-.847.845-.845A.684.684 0 0033.833.2l-.844.845-.833-.834a.683.683 0 00-.484-.2L20.102.003H20.1c-.913 0-1.772.356-2.418 1.002L11.908 6.78a.684.684 0 00.967.967l5.774-5.774A2.04 2.04 0 0120.1 1.37h.002l11.286.007.634.634-2.537 2.537a2.805 2.805 0 00-3.419.422 2.783 2.783 0 00-.82 1.98c0 .748.291 1.452.82 1.98a2.792 2.792 0 001.98.82c.717 0 1.434-.273 1.98-.82a2.806 2.806 0 00.425-3.415l2.537-2.537.645.646-.007 11.273a2.04 2.04 0 01-.601 1.451L16.344 33.033a2.04 2.04 0 01-1.452.601 2.04 2.04 0 01-1.452-.601L1.97 21.559a2.04 2.04 0 01-.602-1.452c0-.548.214-1.064.602-1.452l7.368-7.37a.684.684 0 00-.966-.966L1 17.689a3.399 3.399 0 00-1 2.417c0 .914.356 1.773 1.002 2.42L12.473 34a3.41 3.41 0 002.419 1 3.41 3.41 0 002.419-1l16.68-16.684a3.4 3.4 0 001.003-2.417L35 3.342a.683.683 0 00-.2-.483zm-5.74 5.106c-.271.27-.631.42-1.014.42s-.742-.15-1.013-.42a1.435 1.435 0 011.013-2.447c.139 0 .277.02.41.06l-.789.789a.684.684 0 00.967.967l.787-.787a1.434 1.434 0 01-.361 1.418z"/><path d="M29.2 13.764l-7.966-7.967a2.71 2.71 0 00-3.828 0L4.8 18.406a2.69 2.69 0 00-.793 1.914c0 .723.282 1.403.793 1.914l7.967 7.968c.511.51 1.19.793 1.914.793.723 0 1.402-.282 1.913-.793L29.2 17.592a2.69 2.69 0 00.793-1.913 2.69 2.69 0 00-.793-1.915zm-.966 2.862L15.627 29.235a1.33 1.33 0 01-.947.392 1.33 1.33 0 01-.947-.392l-7.967-7.968a1.33 1.33 0 01-.392-.947c0-.358.139-.695.392-.948L18.373 6.764c.261-.262.604-.392.947-.392.343 0 .686.13.947.392l7.967 7.967c.253.253.392.59.392.948 0 .357-.14.694-.392.947z"/><path d="M22.29 13.677a.684.684 0 00-.966-.967l-.394.394c-1.051-.65-2.4-.563-3.252.29a2.48 2.48 0 00-.716 1.9 2.876 2.876 0 00.853 1.892c.55.55.611 1.384.137 1.859-.475.474-1.309.413-1.859-.137s-.61-1.384-.136-1.859a.684.684 0 00-.967-.967c-.853.853-.94 2.202-.29 3.253l-.468.467a.684.684 0 00.968.967l.467-.467c.46.283.975.427 1.482.427.652 0 1.29-.238 1.77-.717 1.007-1.008.946-2.709-.137-3.792a1.512 1.512 0 01-.454-.991 1.13 1.13 0 01.317-.868c.474-.475 1.308-.413 1.858.137s.611 1.384.137 1.858a.684.684 0 00.966.967c.853-.852.94-2.201.29-3.252l.394-.394zm-6.918 11.335L11.86 21.5a.684.684 0 00-.967.967l3.511 3.512a.682.682 0 00.967 0 .684.684 0 000-.967zm-5.384-5.385a.688.688 0 00-.483-.2.69.69 0 00-.483.2.69.69 0 00-.2.484.684.684 0 00.683.683.688.688 0 00.684-.683.689.689 0 00-.2-.484z"/></symbol><symbol id="icon-email"><path d="M16.68 0H2.323C1.042 0 0 1.009 0 2.25v9.5C0 12.991 1.042 14 2.323 14h14.354C17.958 14 19 12.991 19 11.75V2.253C19.004 1.013 17.962 0 16.68 0zm1.262 11.75c0 .674-.566 1.222-1.262 1.222H2.323c-.695 0-1.262-.548-1.262-1.222V2.253c0-.673.567-1.221 1.262-1.221h14.354c.695 0 1.262.548 1.262 1.221v9.497h.003z" fill="#00B2FF"/><path d="M11.983 6.882l4.646-4.035a.505.505 0 00.04-.727.546.546 0 00-.751-.038L9.51 7.651 8.26 6.57c-.004-.004-.008-.008-.008-.012a.78.78 0 00-.087-.072L3.078 2.078a.542.542 0 00-.75.042.502.502 0 00.043.727l4.702 4.07L2.39 11.16a.504.504 0 00-.023.727.541.541 0 00.75.027l4.754-4.305L9.16 8.724a.54.54 0 00.708-.004l1.325-1.15 4.725 4.348c.102.095.236.14.366.14a.537.537 0 00.385-.16.504.504 0 00-.02-.726l-4.666-4.29z" fill="#00B2FF"/></symbol><symbol id="icon-fb"><path fill-rule="evenodd" clip-rule="evenodd" d="M27 13.5C27 6.045 20.956 0 13.5 0S0 6.045 0 13.5C0 20.956 6.044 27 13.5 27S27 20.956 27 13.5zM16.884 9.294h-1.74c-.469 0-.798.397-.798.891v.775h2.485l-.402 2.517h-2.083v6.747h-2.543v-6.747h-1.688V10.96h1.688V9.678h.004c.045-1.463.553-2.856 3.031-2.944v-.009h2.046v2.57z" fill="#CDCDCD"/></symbol><symbol id="icon-minus"><path d="M0 .5h16v1H0v-1z" fill="#C4C4C4"/></symbol><symbol id="icon-ok"><path d="M13.851 10.957c1.016 0 1.805-.836 1.787-1.746.018-.91-.753-1.764-1.768-1.764-.978 0-1.787.78-1.787 1.746 0 .965.79 1.764 1.768 1.764z" fill="#CDCDCD"/><path d="M13.7 0C6.44 0 .536 5.832.536 13c0 7.187 5.906 13 13.166 13 7.279 0 13.165-5.831 13.165-13 .02-7.168-5.886-13-13.165-13zm.189 4.922c2.37 0 4.326 1.931 4.307 4.29 0 2.377-1.975 4.29-4.382 4.252-2.37-.037-4.27-1.95-4.27-4.271 0-2.359 1.937-4.271 4.345-4.271zm4.834 10.028c0 .037-.02.056-.02.093a1.213 1.213 0 01-.563.873 7.49 7.49 0 01-.659.371 8.544 8.544 0 01-1.787.65c-.075.019-.075.019-.018.075l1.034 1.02c.433.428.884.874 1.317 1.3.62.614.451 1.635-.339 2.007-.132.074-.282.092-.432.13h-.245c-.019 0-.038 0-.038-.019-.3-.037-.545-.186-.77-.39l-2.276-2.247c-.057-.056-.057-.056-.113 0l-2.295 2.266a1.38 1.38 0 01-.433.297c-.112.055-.244.074-.357.093h-.244c-.038 0-.057-.019-.094-.019-.508-.093-.847-.371-.997-.854-.15-.483-.038-.91.32-1.263l.94-.929 1.392-1.374c.056-.056.056-.056-.02-.074-.018 0-.056-.019-.074-.019a8.183 8.183 0 01-2.351-.984c-.433-.279-.64-.687-.583-1.189.094-.928 1.147-1.43 1.937-.928.15.093.282.167.451.241a5.412 5.412 0 002.746.557c.47-.018.94-.111 1.41-.26.452-.148.847-.353 1.26-.575.678-.39 1.562-.075 1.825.65.038.111.057.204.076.315v.186z" fill="#CDCDCD"/></symbol><symbol id="icon-phone"><path d="M14.233 11.15c-.369-.383-.814-.588-1.286-.588-.468 0-.917.2-1.3.585l-1.203 1.196c-.099-.053-.198-.102-.293-.152a4.832 4.832 0 01-.377-.201c-1.126-.714-2.15-1.645-3.13-2.85-.476-.6-.796-1.105-1.028-1.618.312-.285.601-.581.883-.866l.32-.323c.798-.798.798-1.831 0-2.629l-1.04-1.037c-.117-.118-.24-.24-.353-.36A17.952 17.952 0 004.71 1.6c-.369-.365-.81-.559-1.274-.559-.464 0-.913.194-1.294.559l-.007.007L.84 2.91a2.778 2.778 0 00-.825 1.767c-.092 1.11.236 2.142.487 2.819.616 1.66 1.537 3.198 2.91 4.847a17.9 17.9 0 005.962 4.662c.875.414 2.043.904 3.348.987.08.004.163.008.24.008.878 0 1.617-.315 2.195-.942.004-.008.011-.012.015-.02.198-.239.426-.455.666-.687.163-.156.33-.319.494-.49.377-.391.575-.847.575-1.314 0-.471-.202-.924-.586-1.303l-2.089-2.094zm1.362 4c-.004 0-.004.005 0 0-.148.16-.3.305-.464.464a9.977 9.977 0 00-.734.76c-.384.41-.837.604-1.43.604-.058 0-.119 0-.176-.004-1.13-.072-2.18-.513-2.967-.889a16.898 16.898 0 01-5.616-4.391C2.911 10.132 2.043 8.689 1.47 7.139c-.354-.946-.483-1.683-.426-2.379.038-.444.21-.813.525-1.128l1.297-1.295c.187-.175.385-.27.579-.27.24 0 .433.144.555.266l.011.011c.233.217.453.44.685.68.118.122.24.243.362.369L6.095 4.43c.404.403.404.775 0 1.178-.11.11-.217.22-.327.326-.32.327-.624.63-.955.927-.007.008-.015.012-.019.02-.327.326-.266.645-.198.862l.012.034c.27.653.65 1.269 1.229 2.002l.003.004c1.05 1.291 2.158 2.298 3.379 3.07.156.098.316.178.468.254.137.068.266.133.377.201.015.008.03.02.045.027.13.064.251.095.377.095.316 0 .513-.198.578-.262l1.301-1.3c.13-.129.335-.285.575-.285.236 0 .43.149.548.278l.007.007 2.097 2.094c.391.387.391.786.003 1.189zM9.728 4.282a4.827 4.827 0 012.626 1.36 4.84 4.84 0 011.362 2.621.51.51 0 00.506.426c.03 0 .057-.004.087-.008a.513.513 0 00.422-.593 5.856 5.856 0 00-1.647-3.172 5.871 5.871 0 00-3.177-1.645.516.516 0 00-.593.418.507.507 0 00.414.593zm8.264 3.658a9.635 9.635 0 00-2.713-5.223 9.659 9.659 0 00-5.23-2.71.512.512 0 10-.168 1.011 8.65 8.65 0 014.676 2.42 8.601 8.601 0 012.423 4.67.51.51 0 00.506.425c.03 0 .057-.004.088-.008a.503.503 0 00.418-.585z" fill="#00B2FF"/></symbol><symbol id="icon-plus"><path fill-rule="evenodd" clip-rule="evenodd" d="M8.5 8V0h-1v8H0v1h7.5v7h1V9H16V8H8.5z" fill="#C4C4C4"/></symbol><symbol id="icon-suppliers"><path d="M31.264 27.893a3.132 3.132 0 00.597-1.842v-4.108a.684.684 0 00-.684-.683h-3.055a2.564 2.564 0 00-2.561 2.561v2.23c0 .687.222 1.323.596 1.841a4.402 4.402 0 00-1.336.445 5.817 5.817 0 00-4.294-2.56l-.021-.005a4.02 4.02 0 001.03-2.69V17.5a.684.684 0 00-.684-.684H16.7a3.24 3.24 0 00-3.236 3.236v3.03a4.02 4.02 0 001.03 2.69l-.021.005a5.816 5.816 0 00-4.294 2.56c-.42-.22-.87-.369-1.337-.445a3.132 3.132 0 00.597-1.84v-4.109a.684.684 0 00-.684-.683H5.7a2.564 2.564 0 00-2.56 2.561v2.23c0 .688.221 1.324.596 1.842A4.464 4.464 0 000 32.291v2.025c0 .378.306.684.684.684h33.632a.684.684 0 00.684-.684v-2.025a4.464 4.464 0 00-3.736-4.398zM4.506 23.821c0-.658.536-1.194 1.194-1.194h2.372v.832a.74.74 0 01-.74.74H4.506v-.378zm0 1.746h2.826c.26 0 .51-.048.74-.135v.62c0 .982-.8 1.782-1.783 1.782-.983 0-1.783-.8-1.783-1.783v-.484zm2.224 3.634l-.44.44-.442-.44h.882zm2.468 2.363v2.069h-7.83V32.29a3.095 3.095 0 012.588-3.049l1.85 1.85a.684.684 0 00.966 0l1.85-1.85c.327.053.642.158.934.312a5.784 5.784 0 00-.358 2.01zm8.302-5.813a2.672 2.672 0 01-2.668-2.668v-.904h4.085c.453 0 .88-.115 1.252-.319v1.223a2.672 2.672 0 01-2.669 2.669zm1.192 1.368L17.5 28.31l-1.192-1.191h2.384zm-3.86-7.067a1.87 1.87 0 011.868-1.868h3.469v1.377c0 .69-.562 1.251-1.252 1.251H14.83v-.76zm9.603 13.58h-13.87v-1.366h4.451a.684.684 0 100-1.368h-4.4a4.455 4.455 0 013.8-3.738l2.6 2.6a.682.682 0 00.967 0l2.601-2.6a4.451 4.451 0 013.85 4.404v2.069zm2.493-9.81c0-.66.536-1.195 1.194-1.195h2.372v.832a.74.74 0 01-.74.74h-2.826v-.378zm0 1.745h2.825c.26 0 .51-.048.74-.135v.62c0 .982-.799 1.782-1.782 1.782s-1.783-.8-1.783-1.783v-.484zm2.224 3.634l-.441.44-.44-.44h.88zm-3.35 4.432v-2.069c0-.706-.127-1.383-.358-2.01.292-.154.606-.26.933-.312l1.85 1.85a.684.684 0 00.967 0l1.85-1.85a3.095 3.095 0 012.589 3.05v1.34h-7.831zM20.869 4.466a.684.684 0 00-.967 0l-3.354 3.355-1.45-1.45a.684.684 0 10-.967.967l1.933 1.933a.684.684 0 00.967 0l3.838-3.838a.684.684 0 000-.966z"/><path d="M20.295.593a.684.684 0 00-.557 1.248 5.51 5.51 0 013.264 5.028A5.508 5.508 0 0117.5 12.37a5.508 5.508 0 01-5.502-5.501 5.515 5.515 0 013.24-5.017.683.683 0 10-.563-1.246 6.885 6.885 0 00-4.044 6.263 6.877 6.877 0 006.869 6.868 6.876 6.876 0 006.869-6.868A6.88 6.88 0 0020.295.593z"/><path d="M17.524 0H17.5a.684.684 0 000 1.367h.021A.684.684 0 0017.524 0zm.459 31.099a.688.688 0 00-.483-.2.689.689 0 00-.483.2.689.689 0 00-.2.483.684.684 0 00.683.683.688.688 0 00.684-.683.689.689 0 00-.2-.483z"/></symbol><symbol id="icon-timing">
<path d="M3.18833 11.6622L1.70191 10.1904C0.894381 9.39114 0.894381 8.09017 1.70191 7.29042C2.50945 6.49094 3.82351 6.49094 4.63104 7.29042L6.21806 8.86162C7.87358 7.72007 9.7608 6.92993 11.7381 6.55075V4.51172H10.3571C9.97576 4.51172 9.66667 4.2057 9.66667 3.82812V2.05078C9.66667 0.919914 10.5958 0 11.7381 0H17.2619C18.4042 0 19.3333 0.919914 19.3333 2.05078V3.82812C19.3333 4.2057 19.0242 4.51172 18.6429 4.51172H17.2619V6.55075C19.2389 6.92966 21.1264 7.72007 22.7819 8.86162L24.369 7.29042C25.1762 6.49094 26.4903 6.49094 27.2981 7.29042C28.1056 8.0899 28.1056 9.39087 27.2981 10.1904L25.8117 11.6622C27.872 14.203 29 17.3678 29 20.6445C29 28.5601 22.4952 35 14.5 35C6.50477 35 -1.90735e-06 28.5601 -1.90735e-06 20.6445C-1.90735e-06 17.3678 1.12796 14.203 3.18833 11.6622ZM3.65467 8.25706C3.38522 7.99057 2.94747 7.99084 2.67829 8.25706C2.40938 8.52356 2.40938 8.95721 2.67829 9.22371L4.10509 10.636C4.4266 10.3092 4.76374 9.99756 5.11438 9.70249L3.65467 8.25706ZM17.9524 2.05078C17.9524 1.67374 17.6427 1.36719 17.2619 1.36719H11.7381C11.3573 1.36719 11.0476 1.67374 11.0476 2.05078V3.14453H17.9524V2.05078ZM13.119 4.51172V6.35368C14.0342 6.26877 14.9655 6.26877 15.881 6.35368V4.51172H13.119ZM26.3217 8.25706C26.0525 7.99084 25.6145 7.99057 25.3453 8.25706L23.8856 9.70249C24.2363 9.99756 24.5734 10.3092 24.8949 10.636L26.3217 9.22371C26.5906 8.95721 26.5906 8.52356 26.3217 8.25706ZM14.5 33.6328C21.7338 33.6328 27.619 27.8062 27.619 20.6445C27.619 17.4853 26.4606 14.4415 24.3574 12.0732C23.778 11.4208 23.1315 10.8248 22.4359 10.3009C20.6927 8.98766 18.6294 8.12328 16.4689 7.80098C15.8224 7.70512 15.16 7.65625 14.5 7.65625C13.84 7.65625 13.1776 7.70512 12.5313 7.80098C10.3706 8.12328 8.30729 8.98766 6.56384 10.3009C5.86851 10.8248 5.22199 11.4208 4.64264 12.0732C2.53939 14.4415 1.38095 17.4853 1.38095 20.6445C1.38095 27.8062 7.26618 33.6328 14.5 33.6328Z"/>
<path d="M14.5001 22.6953C13.3579 22.6953 12.4287 21.7754 12.4287 20.6445C12.4287 19.7535 13.0059 18.9935 13.8096 18.7112V13.8086C13.8096 13.431 14.1187 13.125 14.5001 13.125C14.8815 13.125 15.1906 13.431 15.1906 13.8086V18.7112C15.9943 18.9935 16.5715 19.7535 16.5715 20.6445C16.5715 21.7754 15.6424 22.6953 14.5001 22.6953ZM14.5001 19.9609C14.1193 19.9609 13.8096 20.2675 13.8096 20.6445C13.8096 21.0216 14.1193 21.3281 14.5001 21.3281C14.8809 21.3281 15.1906 21.0216 15.1906 20.6445C15.1906 20.2675 14.8809 19.9609 14.5001 19.9609Z"/>
<path d="M7.14458 13.4326C7.15536 13.42 7.16615 13.4075 7.17829 13.3957C7.19124 13.3826 7.20499 13.3709 7.21875 13.3591C8.43571 12.1671 9.93912 11.2851 11.5706 10.8082C11.9366 10.7014 12.3205 10.9081 12.4283 11.2702C12.5362 11.6323 12.3275 12.0125 11.9617 12.1193C10.7529 12.4729 9.62517 13.0838 8.66389 13.8996L9.12969 14.3608C9.39914 14.6278 9.39914 15.0607 9.12969 15.3277C8.99484 15.4612 8.81817 15.528 8.64124 15.528C8.46457 15.528 8.28791 15.4612 8.15305 15.3277L7.68617 14.8655C6.43684 16.3037 5.69485 18.0741 5.55028 19.9609H6.21432C6.5957 19.9609 6.9048 20.2672 6.9048 20.6445C6.9048 21.0221 6.5957 21.3281 6.21432 21.3281H5.55028C5.69485 23.2152 6.43684 24.9853 7.68617 26.4235L8.15305 25.9613C8.42277 25.6945 8.85998 25.6945 9.12969 25.9613C9.39941 26.2283 9.39941 26.6612 9.12969 26.9282L8.66282 27.3904C10.1155 28.6273 11.9037 29.3619 13.8096 29.5053V28.8476C13.8096 28.47 14.1187 28.164 14.5 28.164C14.8814 28.164 15.1905 28.47 15.1905 28.8476V29.505C17.0963 29.3619 18.8846 28.6273 20.3373 27.3904L19.8704 26.9282C19.6007 26.6612 19.6007 26.2283 19.8704 25.9613C20.1401 25.6945 20.5773 25.6945 20.847 25.9613L21.3139 26.4235C22.5632 24.9853 23.3052 23.2149 23.4498 21.3281H22.7857C22.4044 21.3281 22.0953 21.0221 22.0953 20.6445C22.0953 20.2669 22.4044 19.9609 22.7857 19.9609H23.4498C23.3052 18.0741 22.5632 16.3037 21.3139 14.8655L20.847 15.3277C20.7122 15.4612 20.5355 15.528 20.3588 15.528C20.1819 15.528 20.0052 15.4612 19.8704 15.3277C19.6009 15.0607 19.6009 14.6278 19.8704 14.3608L20.3362 13.8996C19.3749 13.0836 18.2472 12.4729 17.0383 12.1193C16.6726 12.0125 16.4638 11.6323 16.5717 11.2702C16.6796 10.9081 17.0632 10.7017 17.4294 10.8082C19.0607 11.2849 20.5635 12.1666 21.7802 13.3581C21.7945 13.3701 21.8086 13.3824 21.8218 13.3955C21.8336 13.4072 21.8442 13.4195 21.855 13.4318C23.7913 15.3667 24.8572 17.9259 24.8572 20.6445C24.8572 23.3628 23.7913 25.9218 21.8555 27.8564C21.8447 27.869 21.8339 27.8815 21.8218 27.8933C21.8099 27.9053 21.7975 27.9157 21.7851 27.9264C19.8307 29.8431 17.246 30.8984 14.5 30.8984C11.7543 30.8984 9.16961 29.8434 7.21551 27.9269C7.20284 27.916 7.19016 27.9053 7.17829 27.8933C7.16642 27.8818 7.1559 27.8692 7.14512 27.8572C5.20882 25.9223 4.14289 23.3631 4.14289 20.6445C4.14289 17.9261 5.20882 15.3672 7.14458 13.4326Z"/>
<path d="M14.5 11.7578C14.1188 11.7578 13.8095 11.4515 13.8095 11.0742C13.8095 10.6969 14.1188 10.3906 14.5 10.3906C14.8811 10.3906 15.1904 10.6969 15.1904 11.0742C15.1904 11.4515 14.8811 11.7578 14.5 11.7578Z"/>
</symbol><symbol id="icon-triangles"><mask id="a" maskUnits="userSpaceOnUse" x="0" y="-69" width="1920" height="950"><path fill="#C4C4C4" d="M0-69h1920v950H0z"/></mask><g mask="url(#a)"><path opacity=".2" d="M1656.84 277.584l-274.67 475.75-274.68-475.75h549.35z" stroke="#fff"/><path opacity=".2" d="M1377.15 475.75L1216.5 754l-160.65-278.25h321.3z" stroke="#fff"/><circle cx="1107" cy="277" r="5" fill="#fff"/><circle cx="1056" cy="476" r="5" fill="#fff"/><circle cx="1217" cy="754" r="5" fill="#fff"/><circle cx="1382" cy="753" r="5" fill="#fff"/><circle cx="1657" cy="277" r="5" fill="#fff"/></g></symbol><symbol id="icon-vk"><path d="M19.475 15.127c-1.109-1.024-1.188-1.024-.238-2.206 1.188-1.497 2.773-3.388 1.347-3.388H17.97c-.475 0-.554.316-.713.71-.633 1.496-1.9 3.466-2.376 3.15-.475-.314-.237-1.496-.237-3.387a.61.61 0 00-.159-.63c-.158-.158-.396-.315-.633-.315-.396-.079-.792-.158-1.188-.158-1.505 0-2.535.63-1.98.71 1.03.157.95 2.363.712 3.308-.396 1.655-1.98-1.26-2.693-2.757-.079-.394-.396-.63-.792-.63H5.852c-.317 0-.554.078-.554.315 0 .393 1.98 4.254 3.801 6.224 1.822 1.89 3.644 1.733 4.911 1.733a.607.607 0 00.396-.158.6.6 0 00.158-.394c0-1.26.476-1.89 1.347-1.024.95.945 1.188 1.576 2.376 1.576h2.138c.555 0 .713-.158.713-.394.08-.552-.871-1.576-1.663-2.285zM13.852.001c7.366.157 13.226 6.066 13.147 13.235-.079 7.17-6.178 12.842-13.543 12.763C6.01 25.92.07 20.17.07 13 .15 5.753 6.327-.077 13.852.002z" fill="#CDCDCD"/></symbol></svg>