<svg width="1920" height="4066" fill="none" xmlns="http://www.w3.org/2000/svg"><g clip-path="url(#clip0)"><path d="M297.208 1482.74v549.35l-475.751-274.68 475.751-274.67z" stroke="#EBEBEB"/><circle cx="296.896" cy="2031.88" r="5" transform="rotate(-30 296.896 2031.88)" fill="#F2F2F2"/><circle cx="297.053" cy="1482.15" r="5" transform="rotate(-30 297.053 1482.15)" fill="#F2F2F2"/><path d="M425.594 924.381v256.399l-222.045-128.2 222.045-128.199zM1668.56 1596.78v-256.4l222.05 128.2-222.05 128.2zm-355.94-137.16L836.874 1734.3v-549.35l475.746 274.67z" stroke="#EBEBEB"/><circle cx="836.739" cy="1184.2" r="5" transform="rotate(30 836.739 1184.2)" fill="#F2F2F2"/><circle cx="836.896" cy="1733.93" r="5" transform="rotate(30 836.896 1733.93)" fill="#F2F2F2"/><circle cx="1313.05" cy="1459.2" r="5" transform="rotate(30 1313.05 1459.2)" fill="#F2F2F2"/></g><defs><clipPath id="clip0"><path fill="#fff" d="M0 0h1920v4066H0z"/></clipPath></defs></svg>